# xmcd CD database file
#
# Track frame offsets:
#	150
#	29043
#	41837
#	51863
#	71076
#	85593
#	100021
#	114547
#
# Disc length: 1718 seconds
#
# Revision: 1
# Processed by: cddbd v1.5.2PL0 Copyright (c) Steve Scherf et al.
# Submitted via: CDex 1.70beta2
#
DISCID=6906b408
DTITLE=Liesertal Big Band - Kepp On Swingin'
DYEAR=2007
DGENRE=Jazz
TTITLE0=LBB Blues
TTITLE1=The Lady Is A Tramp
TTITLE2=Love Is Where You Find It
TTITLE3=Desch Man
TTITLE4=Mack The Knife
TTITLE5=Mr Bojangles
TTITLE6=Mack The Knife (Karaoke Version)
TTITLE7=Mr Bojangles (Karaoke Version)
EXTD=YEAR: 2007
EXTT0=
EXTT1=
EXTT2=
EXTT3=
EXTT4=
EXTT5=
EXTT6=
EXTT7=
PLAYORDER=
